# This file uses centimeters as units for non-parametric coordinates.

mtllib MOUNTıNPUT.mtl
g default
v 0.155154 -0.196184 -15.687917
v 0.914595 1.370633 -15.687917
v 1.674035 2.657422 -15.687917
v 2.433476 3.361580 -15.687917
v 3.192917 2.585411 -15.687917
v 3.952358 1.394313 -15.687917
v 4.711799 -0.479304 -15.687917
v 0.155154 -0.196184 -16.455932
v 0.708071 2.307351 -16.554352
v 1.467512 3.476986 -16.554352
v 2.226953 3.040266 -16.433919
v 2.986393 2.920898 -16.554352
v 3.745834 2.307351 -16.554352
v 4.711799 -0.479304 -16.455933
v 0.155154 -0.196184 -17.223948
v 0.708071 2.307351 -17.322367
v 1.467512 3.007748 -17.322367
v 2.226953 3.689353 -17.322367
v 2.986393 3.237489 -17.322367
v 3.745834 2.684334 -17.322367
v 4.711799 -0.354616 -17.223948
v 0.155154 0.180799 -17.991963
v 0.708071 2.307351 -18.090383
v 1.467512 3.918627 -18.090383
v 2.226953 4.547191 -18.090383
v 2.986393 3.484466 -18.090383
v 3.745834 3.290690 -18.090383
v 4.711799 -0.682463 -17.991963
v 0.155154 1.672834 -19.916131
v 0.708071 2.307351 -19.952900
v 1.467512 3.237489 -18.858398
v 2.226953 3.237489 -18.858398
v 2.986393 3.237489 -18.858398
v 3.745834 2.307351 -18.858398
v 4.711799 -0.682463 -18.759979
v 0.155154 5.278621 -20.640932
v 0.708071 5.481158 -20.739351
v 1.467512 5.481158 -19.626414
v 2.226953 5.079630 -19.626414
v 2.986393 6.215341 -19.626414
v 4.784428 6.215341 -20.720916
v 4.711799 -0.599411 -21.413126
v 0.155154 5.278621 -23.860537
v 0.914595 5.278621 -23.860537
v 1.674035 6.577221 -24.092568
v 2.433476 7.104274 -24.092568
v 3.192917 5.735500 -24.092568
v 3.952358 5.278621 -23.578783
v 4.711799 4.095285 -25.119992
vt 0.000000 0.000000
vt 0.164806 0.000000
vt 0.329612 0.000000
vt 0.494418 0.000000
vt 0.659224 0.000000
vt 0.824029 0.000000
vt 0.988835 0.000000
vt 0.000000 0.166667
vt 0.164806 0.166667
vt 0.329612 0.166667
vt 0.494418 0.166667
vt 0.659224 0.166667
vt 0.824029 0.166667
vt 0.988835 0.166667
vt 0.000000 0.333333
vt 0.164806 0.333333
vt 0.329612 0.333333
vt 0.494418 0.333333
vt 0.659224 0.333333
vt 0.824029 0.333333
vt 0.988835 0.333333
vt 0.000000 0.500000
vt 0.164806 0.500000
vt 0.329612 0.500000
vt 0.494418 0.500000
vt 0.659224 0.500000
vt 0.824029 0.500000
vt 0.988835 0.500000
vt 0.000000 0.666667
vt 0.164806 0.666667
vt 0.329612 0.666667
vt 0.494418 0.666667
vt 0.659224 0.666667
vt 0.824029 0.666667
vt 0.988835 0.666667
vt 0.000000 0.833333
vt 0.164806 0.833333
vt 0.329612 0.833333
vt 0.494418 0.833333
vt 0.659224 0.833333
vt 0.824029 0.833333
vt 0.988835 0.833333
vt 0.000000 1.000000
vt 0.164806 1.000000
vt 0.329612 1.000000
vt 0.494418 1.000000
vt 0.659224 1.000000
vt 0.824029 1.000000
vt 0.988835 1.000000
vn -0.909663 0.300232 0.287008
vn -0.860404 0.340480 0.379180
vn -0.889036 0.391179 0.237898
vn -0.955004 0.260189 0.142371
vn -0.615276 0.547217 0.567441
vn -0.589882 0.753075 0.291406
vn 0.240641 0.968136 0.069313
vn 0.163247 0.959418 0.229930
vn 0.687502 0.707259 0.164701
vn 0.558410 0.789135 0.255822
vn 0.913410 0.392795 0.106745
vn 0.875766 0.452161 0.169069
vn 0.934546 0.347610 0.076096
vn 0.939019 0.331945 0.089751
vn -0.933221 0.356019 0.048474
vn -0.974596 0.222880 0.022064
vn -0.707945 0.674104 0.210708
vn 0.062637 0.813073 0.578782
vn 0.484916 0.757189 0.437632
vn 0.906004 0.400855 0.135910
vn 0.954790 0.288364 0.072272
vn -0.906357 0.414349 0.082661
vn -0.951995 0.291360 0.093884
vn -0.691901 0.721825 -0.015527
vn 0.035598 0.998177 -0.048737
vn 0.593192 0.797706 -0.108571
vn 0.864478 0.497062 -0.074883
vn 0.961695 0.263920 -0.074088
vn -0.740746 0.329562 0.585392
vn -0.851320 0.391324 0.349457
vn -0.824461 0.442400 0.352912
vn -0.037192 0.753138 0.656811
vn 0.439739 0.406934 0.800646
vn 0.946736 0.144570 0.287733
vn 0.974339 0.109931 0.196415
vn -0.660331 0.687480 0.302215
vn -0.121218 0.720196 0.683099
vn -0.566916 0.639503 0.519271
vn -0.034821 0.753142 0.656935
vn 0.328337 0.766840 0.551499
vn 0.905718 0.400902 0.137666
vn 0.985435 0.084561 0.147540
vn -0.522596 0.852234 0.024307
vn -0.155102 0.987221 -0.036586
vn -0.351474 0.909890 0.220376
vn 0.030849 0.966120 0.256242
vn 0.140827 0.989799 -0.021609
vn 0.933207 0.341787 -0.110932
vn 0.992385 0.103756 -0.066388
s 1
g pPlane2
usemtl lambert2SG
f 1/1/1 2/2/2 9/9/3 8/8/4
f 2/2/2 3/3/5 10/10/6 9/9/3
f 3/3/5 4/4/7 11/11/8 10/10/6
f 4/4/7 5/5/9 12/12/10 11/11/8
f 5/5/9 6/6/11 13/13/12 12/12/10
f 6/6/11 7/7/13 14/14/14 13/13/12
f 8/8/4 9/9/3 16/16/15 15/15/16
f 9/9/3 10/10/6 17/17/17 16/16/15
f 10/10/6 11/11/8 18/18/18 17/17/17
f 11/11/8 12/12/10 19/19/19 18/18/18
f 12/12/10 13/13/12 20/20/20 19/19/19
f 13/13/12 14/14/14 21/21/21 20/20/20
f 15/15/16 16/16/15 23/23/22 22/22/23
f 16/16/15 17/17/17 24/24/24 23/23/22
f 17/17/17 18/18/18 25/25/25 24/24/24
f 18/18/18 19/19/19 26/26/26 25/25/25
f 19/19/19 20/20/20 27/27/27 26/26/26
f 20/20/20 21/21/21 28/28/28 27/27/27
f 22/22/23 23/23/22 30/30/29 29/29/30
f 23/23/22 24/24/24 31/31/31 30/30/29
f 24/24/24 25/25/25 32/32/32 31/31/31
f 25/25/25 26/26/26 33/33/33 32/32/32
f 26/26/26 27/27/27 34/34/34 33/33/33
f 27/27/27 28/28/28 35/35/35 34/34/34
f 29/29/30 30/30/29 37/37/36 36/36/37
f 30/30/29 31/31/31 38/38/38 37/37/36
f 31/31/31 32/32/32 39/39/39 38/38/38
f 32/32/32 33/33/33 40/40/40 39/39/39
f 33/33/33 34/34/34 41/41/41 40/40/40
f 34/34/34 35/35/35 42/42/42 41/41/41
f 36/36/37 37/37/36 44/44/43 43/43/44
f 37/37/36 38/38/38 45/45/45 44/44/43
f 38/38/38 39/39/39 46/46/46 45/45/45
f 39/39/39 40/40/40 47/47/47 46/46/46
f 40/40/40 41/41/41 48/48/48 47/47/47
f 41/41/41 42/42/42 49/49/49 48/48/48
